<svg width="32" height="32" viewBox="0 0 32 32" fill="none" xmlns="http://www.w3.org/2000/svg">
<circle cx="16" cy="16" r="16" fill="white" fill-opacity="0.8"/>
<path fill-rule="evenodd" clip-rule="evenodd" d="M20.5983 11.4017C20.7988 11.6022 20.7988 11.9272 20.5983 12.1277L12.1277 20.5983C11.9272 20.7988 11.6022 20.7988 11.4017 20.5983C11.2012 20.3978 11.2012 20.0728 11.4017 19.8723L19.8723 11.4017C20.0728 11.2012 20.3978 11.2012 20.5983 11.4017Z" fill="#262638"/>
<path fill-rule="evenodd" clip-rule="evenodd" d="M11.4017 11.4017C11.6022 11.2012 11.9272 11.2012 12.1277 11.4017L20.5983 19.8723C20.7988 20.0728 20.7988 20.3978 20.5983 20.5983C20.3978 20.7988 20.0728 20.7988 19.8723 20.5983L11.4017 12.1277C11.2012 11.9272 11.2012 11.6022 11.4017 11.4017Z" fill="#262638"/>
</svg>
