<svg width="12" height="12" viewBox="0 0 12 12" fill="none" xmlns="http://www.w3.org/2000/svg">
<path fill-rule="evenodd" clip-rule="evenodd" d="M5.99997 3.78409C5.39748 3.78409 4.90906 4.27251 4.90906 4.875C4.90906 5.4775 5.39748 5.96591 5.99997 5.96591C6.60246 5.96591 7.09088 5.4775 7.09088 4.875C7.09088 4.27251 6.60246 3.78409 5.99997 3.78409ZM4.09088 4.875C4.09088 3.82064 4.94561 2.96591 5.99997 2.96591C7.05433 2.96591 7.90906 3.82064 7.90906 4.875C7.90906 5.92936 7.05433 6.78409 5.99997 6.78409C4.94561 6.78409 4.09088 5.92936 4.09088 4.875Z" fill="#A0A0C0"/>
<path fill-rule="evenodd" clip-rule="evenodd" d="M5.99997 1.53409C5.11391 1.53409 4.26414 1.88608 3.63759 2.51262C3.01105 3.13917 2.65906 3.98894 2.65906 4.875C2.65906 6.41521 3.51959 7.821 4.43367 8.87219C4.88572 9.39204 5.33881 9.81127 5.67898 10.1004C5.80338 10.2061 5.91227 10.2941 5.99997 10.363C6.08767 10.2941 6.19657 10.2061 6.32096 10.1004C6.66113 9.81127 7.11423 9.39204 7.56627 8.87219C8.48035 7.821 9.34088 6.41521 9.34088 4.875C9.34088 3.98894 8.98889 3.13917 8.36235 2.51262C7.73581 1.88608 6.88604 1.53409 5.99997 1.53409ZM5.99997 10.875C5.76537 11.2101 5.76526 11.2101 5.76513 11.21L5.76481 11.2097L5.7639 11.2091L5.76106 11.2071L5.75139 11.2002C5.74319 11.1944 5.73154 11.186 5.71665 11.1751C5.68689 11.1534 5.6442 11.1218 5.59042 11.0807C5.48291 10.9985 5.33085 10.8783 5.14909 10.7238C4.78613 10.4153 4.30173 9.96734 3.81627 9.40907C2.85535 8.30401 1.84088 6.7098 1.84088 4.875C1.84088 3.77194 2.27907 2.71406 3.05905 1.93408C3.83903 1.1541 4.89691 0.715912 5.99997 0.715912C7.10303 0.715912 8.16091 1.1541 8.94089 1.93408C9.72088 2.71406 10.1591 3.77194 10.1591 4.875C10.1591 6.7098 9.14459 8.30401 8.18368 9.40907C7.69822 9.96734 7.21381 10.4153 6.85086 10.7238C6.66909 10.8783 6.51704 10.9985 6.40952 11.0807C6.35574 11.1218 6.31305 11.1534 6.28329 11.1751C6.26841 11.186 6.25676 11.1944 6.24856 11.2002L6.23889 11.2071L6.23605 11.2091L6.23514 11.2097L6.23481 11.21C6.23468 11.2101 6.23457 11.2101 5.99997 10.875ZM5.99997 10.875L6.23457 11.2101C6.09371 11.3087 5.90623 11.3087 5.76537 11.2101L5.99997 10.875Z" fill="#A0A0C0"/>
</svg>
