<svg width="32" height="32" viewBox="0 0 32 32" fill="none" xmlns="http://www.w3.org/2000/svg">
<path fill-rule="evenodd" clip-rule="evenodd" d="M15.2941 10.8663C12.8487 10.8663 10.8663 12.8487 10.8663 15.2941C10.8663 17.7395 12.8487 19.7219 15.2941 19.7219C17.7396 19.7219 19.722 17.7395 19.722 15.2941C19.722 12.8487 17.7396 10.8663 15.2941 10.8663ZM9.8396 15.2941C9.8396 12.2817 12.2817 9.83957 15.2941 9.83957C18.3066 9.83957 20.7487 12.2817 20.7487 15.2941C20.7487 18.3066 18.3066 20.7487 15.2941 20.7487C12.2817 20.7487 9.8396 18.3066 9.8396 15.2941Z"/>
<path fill-rule="evenodd" clip-rule="evenodd" d="M18.4249 18.4252C18.6254 18.2248 18.9504 18.2248 19.1509 18.4252L22.0098 21.2841C22.2103 21.4846 22.2103 21.8096 22.0098 22.0101C21.8093 22.2106 21.4842 22.2106 21.2838 22.0101L18.4249 19.1512C18.2244 18.9508 18.2244 18.6257 18.4249 18.4252Z"/>
</svg>
