<svg width="32" height="32" viewBox="0 0 32 32"  xmlns="http://www.w3.org/2000/svg">
<path fill-rule="evenodd" clip-rule="evenodd" d="M15.4304 9.54641C15.5979 9.43085 15.7965 9.36896 16 9.36896C16.2034 9.36896 16.4021 9.43085 16.5695 9.54641C16.7357 9.6611 16.8633 9.82325 16.9358 10.0116L18.2276 13.2646L21.6872 13.4891C22.6235 13.5499 22.9498 14.7241 22.2624 15.2963L19.6044 17.5085C19.6043 17.5086 19.6044 17.5085 19.6044 17.5085C19.6042 17.5087 19.6039 17.5091 19.6038 17.5093C19.6037 17.5096 19.6037 17.51 19.6038 17.5103L19.6041 17.5116L20.4613 20.8835C20.6783 21.7372 19.7568 22.5136 18.9515 22.0034L16 20.1335L13.2582 21.8705C12.377 22.4288 11.3613 21.5809 11.6009 20.6387L12.3958 17.5116L12.3961 17.5103C12.3962 17.51 12.3962 17.5097 12.3961 17.5093C12.396 17.5091 12.3959 17.5088 12.3957 17.5086C12.3956 17.5086 12.3957 17.5087 12.3957 17.5086L9.73757 15.2963L10.066 14.9017M10.066 14.9017L9.73757 15.2963C9.05013 14.7241 9.37645 13.5499 10.3127 13.4891L13.7724 13.2646L15.0641 10.0116C15.1366 9.82325 15.2642 9.66109 15.4304 9.54641M15.9847 20.1238L16.2594 19.6901L15.9838 20.1232C15.9841 20.1234 15.9844 20.1236 15.9847 20.1238ZM16.5351 19.2571C16.535 19.257 16.5352 19.2571 16.5351 19.2571L19.4594 21.1098L18.6094 17.7659C18.6093 17.7657 18.6093 17.7654 18.6092 17.7652C18.5612 17.5779 18.567 17.3809 18.6259 17.1967C18.6848 17.0123 18.7946 16.8482 18.9426 16.7235L18.9451 16.7214L21.5992 14.5123L18.143 14.288C17.9524 14.2744 17.7696 14.2069 17.6159 14.0934C17.4628 13.9804 17.3448 13.8264 17.2755 13.6491L16 10.4369L14.7244 13.6491C14.6551 13.8264 14.5371 13.9804 14.384 14.0934C14.2303 14.2069 14.0475 14.2744 13.8569 14.288L13.8536 14.2882L10.4007 14.5123L13.0548 16.7214L13.0573 16.7235C13.2053 16.8482 13.3151 17.0123 13.3741 17.1967C13.4329 17.3808 13.4387 17.5778 13.3908 17.7651C13.3907 17.7653 13.3906 17.7656 13.3905 17.7659L12.5959 20.8917C12.5881 20.9224 12.5918 20.9422 12.5968 20.9557C12.6028 20.9717 12.6142 20.9874 12.63 20.9994C12.6458 21.0114 12.6604 21.0155 12.6697 21.0161C12.6757 21.0165 12.6876 21.0166 12.7087 21.0032L15.4648 19.2571C15.4646 19.2572 15.465 19.2569 15.4648 19.2571C15.6246 19.1555 15.8106 19.1012 16 19.1012C16.1894 19.1012 16.3753 19.1554 16.5351 19.2571Z" fill="white"/>
</svg>
